HIERARCHY
ROOT hip
{
	OFFSET 0.000000 0.000000 0.000000 
	CHANNELS 6 Xposition Yposition Zposition Zrotation Yrotation Xrotation
	JOINT abdomen
	{
		OFFSET 0.000000 20.688101 -0.731520 
		CHANNELS 3 Zrotation Xrotation Yrotation
		JOINT chest
		{
			OFFSET 0.000000 11.704300 -0.487680 
			CHANNELS 3 Zrotation Xrotation Yrotation
			JOINT neck
			{
				OFFSET 0.000000 22.189400 -2.194560 
				CHANNELS 3 Zrotation Xrotation Yrotation
				JOINT head
				{
					OFFSET -0.243840 7.071330 1.219200 
					CHANNELS 3 Zrotation Xrotation Yrotation
					JOINT leftEye
					{
						OFFSET 4.145280 8.046740 8.046720 
						CHANNELS 3 Zrotation Xrotation Yrotation
						End Site
						{
							OFFSET 1.000000 0.000000 0.000000 
						}
					}
					JOINT rightEye
					{
						OFFSET -3.657600 8.046740 8.046720 
						CHANNELS 3 Zrotation Xrotation Yrotation
						End Site
						{
							OFFSET 1.000000 0.000000 0.000000 
						}
					}
				}
			}
			JOINT rCollar
			{
				OFFSET -2.682240 19.263399 -4.876800 
				CHANNELS 3 Zrotation Xrotation Yrotation
				JOINT rShldr
				{
					OFFSET -8.778240 -1.950730 1.463040 
					CHANNELS 3 Zrotation Xrotation Yrotation
					JOINT rForeArm
					{
						OFFSET -28.174200 -1.711500 0.487680 
						CHANNELS 3 Zrotation Xrotation Yrotation
						JOINT rHand
						{
							OFFSET -22.587900 0.773209 7.071360 
							CHANNELS 3 Zrotation Xrotation Yrotation
							JOINT rThumb1
							{
								OFFSET -1.219200 -0.487915 3.413760 
								CHANNELS 3 Zrotation Xrotation Yrotation
								JOINT rThumb2
								{
									OFFSET -3.370350 -0.524490 3.413760 
									CHANNELS 3 Zrotation Xrotation Yrotation
									End Site
									{
										OFFSET -1.782710 -1.182140 1.430490 
									}
								}
							}
							JOINT rIndex1
							{
								OFFSET -7.759470 0.938293 5.608320 
								CHANNELS 3 Zrotation Xrotation Yrotation
								JOINT rIndex2
								{
									OFFSET -2.540570 -0.884171 1.565380 
									CHANNELS 3 Zrotation Xrotation Yrotation
									End Site
									{
										OFFSET -1.625190 -0.234802 1.165020 
									}
								}
							}
							JOINT rMid1
							{
								OFFSET -8.247140 1.182130 3.413760 
								CHANNELS 3 Zrotation Xrotation Yrotation
								JOINT rMid2
								{
									OFFSET -3.101650 -0.590103 1.064700 
									CHANNELS 3 Zrotation Xrotation Yrotation
									End Site
									{
										OFFSET -2.485470 -0.328903 0.837420 
									}
								}
							}
							JOINT rRing1
							{
								OFFSET -8.828220 0.546677 1.516780 
								CHANNELS 3 Zrotation Xrotation Yrotation
								JOINT rRing2
								{
									OFFSET -2.609340 -0.819778 -0.019849 
									CHANNELS 3 Zrotation Xrotation Yrotation
									End Site
									{
										OFFSET -2.338420 -0.294052 0.168128 
									}
								}
							}
							JOINT rPinky1
							{
								OFFSET -8.272020 -0.047791 -0.458400 
								CHANNELS 3 Zrotation Xrotation Yrotation
								JOINT rPinky2
								{
									OFFSET -1.827340 -0.647385 -0.700984 
									CHANNELS 3 Zrotation Xrotation Yrotation
									End Site
									{
										OFFSET -1.692250 -0.517670 -0.607171 
									}
								}
							}
						}
					}
				}
			}
			JOINT lCollar
			{
				OFFSET 2.682240 19.263399 -4.876800 
				CHANNELS 3 Zrotation Xrotation Yrotation
				JOINT lShldr
				{
					OFFSET 8.778240 -1.950730 1.463040 
					CHANNELS 3 Zrotation Xrotation Yrotation
					JOINT lForeArm
					{
						OFFSET 28.174200 -1.711500 0.487680 
						CHANNELS 3 Zrotation Xrotation Yrotation
						JOINT lHand
						{
							OFFSET 22.587900 0.773209 7.071360 
							CHANNELS 3 Zrotation Xrotation Yrotation
							JOINT lThumb1
							{
								OFFSET 1.219200 -0.487915 3.413760 
								CHANNELS 3 Zrotation Xrotation Yrotation
								JOINT lThumb2
								{
									OFFSET 3.370350 -0.524490 3.413760 
									CHANNELS 3 Zrotation Xrotation Yrotation
									End Site
									{
										OFFSET 1.782710 -1.182140 1.430490 
									}
								}
							}
							JOINT lIndex1
							{
								OFFSET 7.759470 0.938293 5.608320 
								CHANNELS 3 Zrotation Xrotation Yrotation
								JOINT lIndex2
								{
									OFFSET 2.540570 -0.884171 1.565380 
									CHANNELS 3 Zrotation Xrotation Yrotation
									End Site
									{
										OFFSET 1.625190 -0.234802 1.165020 
									}
								}
							}
							JOINT lMid1
							{
								OFFSET 8.247140 1.182130 3.413760 
								CHANNELS 3 Zrotation Xrotation Yrotation
								JOINT lMid2
								{
									OFFSET 3.101650 -0.590103 1.064700 
									CHANNELS 3 Zrotation Xrotation Yrotation
									End Site
									{
										OFFSET 2.485470 -0.328903 0.837420 
									}
								}
							}
							JOINT lRing1
							{
								OFFSET 8.828220 0.546677 1.516780 
								CHANNELS 3 Zrotation Xrotation Yrotation
								JOINT lRing2
								{
									OFFSET 2.609340 -0.819778 -0.019849 
									CHANNELS 3 Zrotation Xrotation Yrotation
									End Site
									{
										OFFSET 2.338420 -0.294052 0.168128 
									}
								}
							}
							JOINT lPinky1
							{
								OFFSET 8.272020 -0.047791 -0.458400 
								CHANNELS 3 Zrotation Xrotation Yrotation
								JOINT lPinky2
								{
									OFFSET 1.827340 -0.647385 -0.700984 
									CHANNELS 3 Zrotation Xrotation Yrotation
									End Site
									{
										OFFSET 1.692250 -0.517670 -0.607171 
									}
								}
							}
						}
					}
				}
			}
		}
	}
	JOINT rButtock
	{
		OFFSET -8.778240 4.350840 1.219200 
		CHANNELS 3 Zrotation Xrotation Yrotation
		JOINT rThigh
		{
			OFFSET 0.000000 -1.706870 -2.194560 
			CHANNELS 3 Zrotation Xrotation Yrotation
			JOINT rShin
			{
				OFFSET 0.000000 -36.819901 0.731520 
				CHANNELS 3 Zrotation Xrotation Yrotation
				JOINT rFoot
				{
					OFFSET 0.731520 -45.110401 -5.120640 
					CHANNELS 3 Zrotation Xrotation Yrotation
					End Site
					{
						OFFSET -1.122100 -3.699640 12.103000 
					}
				}
			}
		}
	}
	JOINT lButtock
	{
		OFFSET 8.778240 4.350840 1.219200 
		CHANNELS 3 Zrotation Xrotation Yrotation
		JOINT lThigh
		{
			OFFSET 0.000000 -1.706870 -2.194560 
			CHANNELS 3 Zrotation Xrotation Yrotation
			JOINT lShin
			{
				OFFSET 0.000000 -36.819901 0.731520 
				CHANNELS 3 Zrotation Xrotation Yrotation
				JOINT lFoot
				{
					OFFSET -0.731520 -45.110401 -5.120640 
					CHANNELS 3 Zrotation Xrotation Yrotation
					End Site
					{
						OFFSET 1.122100 -3.699640 12.103000 
					}
				}
			}
		}
	}
}
MOTION
Frames: 6
Frame Time: 0.040000
0.000000 0.000000 -190.000000 0.000000 0.000000 0.000000 -5.390900 8.538500 -1.689000 -0.010200 -0.011800 0.050100 -7.697900 3.493100 -2.853100 12.367500 2.910200 -8.984800 0.000000 0.000000 0.000000 0.000000 0.000000 0.000000 0.000000 0.000000 0.000000 38.725498 -0.618200 0.901600 -24.597900 -9.412400 28.435600 2.871900 52.380501 9.765100 0.000000 0.000000 0.000000 0.000000 0.000000 0.000000 0.000000 0.000000 0.000000 0.023600 0.013400 0.013700 0.000000 0.000000 0.000000 0.030000 0.008500 0.015800 0.000000 0.000000 0.000000 0.015400 0.020900 0.035200 0.000000 0.000000 0.000000 0.027700 -0.022300 -0.029400 0.000000 0.000000 0.000000 -71.897003 18.674299 7.269600 15.454000 -11.713300 -25.922100 -10.977300 2.668200 -12.880900 0.000000 0.000000 0.000000 0.000000 0.000000 0.000000 0.000000 0.000000 0.000000 -0.013300 0.006100 -0.005200 0.000000 0.000000 0.000000 -0.032900 0.030200 -0.004900 0.000000 0.000000 0.000000 -0.030100 0.004100 -0.032500 0.000000 0.000000 0.000000 -0.003800 -0.018500 0.013800 0.000000 0.000000 0.000000 -1.449800 -18.356001 2.332800 3.401100 21.580000 -2.323300 -1.667800 -8.647400 -8.370600 0.000000 0.000000 0.000000 2.662100 -10.163400 -15.194000 6.862600 22.700600 -1.368800 2.910700 -13.251400 9.888300 
0.000000 0.000000 -190.000000 0.000000 0.000000 0.000000 -5.804400 7.838600 -1.458300 -0.010200 -0.011800 0.050100 -7.359600 3.353900 -3.023800 11.215000 2.880700 -9.428800 0.000000 0.000000 0.000000 0.000000 0.000000 0.000000 0.000000 0.000000 0.000000 32.897400 0.962400 6.611100 -25.563900 -9.580000 32.588402 2.461500 45.287701 11.273700 0.000000 0.000000 0.000000 0.000000 0.000000 0.000000 0.000000 0.000000 0.000000 0.023600 0.013400 0.013700 0.000000 0.000000 0.000000 0.030000 0.008500 0.015800 0.000000 0.000000 0.000000 0.015400 0.020900 0.035200 0.000000 0.000000 0.000000 0.027700 -0.022300 -0.029400 0.000000 0.000000 0.000000 -70.479401 18.297899 6.509700 15.506200 -12.025800 -26.449200 -10.156100 2.748900 -12.426300 0.000000 0.000000 0.000000 0.000000 0.000000 0.000000 0.000000 0.000000 0.000000 -0.013300 0.006100 -0.005200 0.000000 0.000000 0.000000 -0.032900 0.030200 -0.004900 0.000000 0.000000 0.000000 -0.030100 0.004100 -0.032500 0.000000 0.000000 0.000000 -0.003800 -0.018500 0.013800 0.000000 0.000000 0.000000 -2.665300 -19.473000 0.522300 3.390100 22.897400 -2.264000 -1.740900 -8.652500 -8.371400 0.000000 0.000000 0.000000 1.330000 -6.988800 -11.796800 5.839900 17.273600 -1.207200 2.913900 -13.121700 9.773800 
0.000000 0.000000 -190.000000 0.000000 0.000000 0.000000 -5.704900 8.221300 -1.515500 -0.010200 -0.011800 0.050100 -8.499300 3.353100 -4.416700 10.971800 3.078500 -12.250400 0.000000 0.000000 0.000000 0.000000 0.000000 0.000000 0.000000 0.000000 0.000000 24.695299 -11.181200 12.896600 -26.421200 -10.006300 30.147100 1.799400 35.621101 10.691800 0.000000 0.000000 0.000000 0.000000 0.000000 0.000000 0.000000 0.000000 0.000000 0.023600 0.013400 0.013700 0.000000 0.000000 0.000000 0.030000 0.008500 0.015800 0.000000 0.000000 0.000000 0.015400 0.020900 0.035200 0.000000 0.000000 0.000000 0.027700 -0.022300 -0.029400 0.000000 0.000000 0.000000 -68.574402 18.141300 5.281700 15.556500 -11.882400 -26.106400 -9.714600 5.317000 -12.660800 0.000000 0.000000 0.000000 0.000000 0.000000 0.000000 0.000000 0.000000 0.000000 -0.013300 0.006100 -0.005200 0.000000 0.000000 0.000000 -0.032900 0.030200 -0.004900 0.000000 0.000000 0.000000 -0.030100 0.004100 -0.032500 0.000000 0.000000 0.000000 -0.003800 -0.018500 0.013800 0.000000 0.000000 0.000000 -2.031600 -9.648800 1.916400 3.905800 19.996000 -2.409000 -1.735700 -8.732400 -8.371400 0.000000 0.000000 0.000000 9.640300 -11.168600 -10.027400 6.860300 23.176100 -1.394500 3.197100 -14.814400 13.135100 
0.000000 0.000000 -190.000000 0.000000 0.000000 0.000000 -6.191000 8.036800 -1.251800 -0.010200 -0.011800 0.050100 -8.783100 3.335800 -6.256900 14.094600 2.274300 -12.862300 0.000000 0.000000 0.000000 0.000000 0.000000 0.000000 0.000000 0.000000 0.000000 23.187901 -19.227600 28.742701 -27.645100 -13.732400 36.816101 0.927200 -54.975899 11.118400 0.000000 0.000000 0.000000 0.000000 0.000000 0.000000 0.000000 0.000000 0.000000 0.023600 0.013400 0.013700 0.000000 0.000000 0.000000 0.030000 0.008500 0.015800 0.000000 0.000000 0.000000 0.015400 0.020900 0.035200 0.000000 0.000000 0.000000 0.027700 -0.022300 -0.029400 0.000000 0.000000 0.000000 -66.648903 16.919100 4.802800 15.684000 -12.249800 -26.433300 -8.709700 7.226900 -12.280600 0.000000 0.000000 0.000000 0.000000 0.000000 0.000000 0.000000 0.000000 0.000000 -0.013300 0.006100 -0.005200 0.000000 0.000000 0.000000 -0.032900 0.030200 -0.004900 0.000000 0.000000 0.000000 -0.030100 0.004100 -0.032500 0.000000 0.000000 0.000000 -0.003800 -0.018500 0.013800 0.000000 0.000000 0.000000 -1.075600 -15.347100 2.635200 3.637000 15.495600 -2.528600 -1.923400 -8.864800 -8.371400 0.000000 0.000000 0.000000 3.102400 -7.293600 -17.218800 7.619700 24.697599 -1.431100 2.985600 -14.689700 12.756500 
0.000000 0.000000 -190.000000 0.000000 0.000000 0.000000 -5.957900 7.665500 -0.210800 -0.010200 -0.011800 0.050100 -8.539900 3.247900 -6.111400 14.241700 1.866500 -12.466700 0.000000 0.000000 0.000000 0.000000 0.000000 0.000000 0.000000 0.000000 0.000000 21.526100 -11.677000 41.962898 -28.005501 -14.721400 38.065102 0.726000 -123.298103 7.945500 0.000000 0.000000 0.000000 0.000000 0.000000 0.000000 0.000000 0.000000 0.000000 0.023600 0.013400 0.013700 0.000000 0.000000 0.000000 0.030000 0.008500 0.015800 0.000000 0.000000 0.000000 0.015400 0.020900 0.035200 0.000000 0.000000 0.000000 0.027700 -0.022300 -0.029400 0.000000 0.000000 0.000000 -64.187103 16.859699 3.303300 15.596600 -12.764200 -26.973499 -7.917000 7.765400 -11.995800 0.000000 0.000000 0.000000 0.000000 0.000000 0.000000 0.000000 0.000000 0.000000 -0.013300 0.006100 -0.005200 0.000000 0.000000 0.000000 -0.032900 0.030200 -0.004900 0.000000 0.000000 0.000000 -0.030100 0.004100 -0.032500 0.000000 0.000000 0.000000 -0.003800 -0.018500 0.013800 0.000000 0.000000 0.000000 -1.854300 -17.620501 0.117700 4.152100 16.510500 -2.464900 -2.034300 -9.118400 -8.371400 0.000000 0.000000 0.000000 1.950200 -2.179300 -15.380400 6.414300 16.768801 -1.271300 3.005800 -14.239600 11.664300 
0.000000 0.000000 -190.000000 0.000000 0.000000 0.000000 -6.145900 8.346300 -0.621600 -0.010200 -0.011800 0.050000 -9.054300 3.331800 -5.398500 13.901100 2.068700 -11.434600 0.000000 0.000000 0.000000 0.000000 0.000000 0.000000 0.000000 0.000000 0.000000 21.563000 2.556900 45.728600 -28.633101 -15.495300 47.914001 0.862900 -67.129303 6.098700 0.000000 0.000000 0.000000 0.000000 0.000000 0.000000 0.000000 0.000000 0.000000 0.023600 0.013400 0.013700 0.000000 0.000000 0.000000 0.030000 0.008500 0.015800 0.000000 0.000000 0.000000 0.015400 0.020900 0.035200 0.000000 0.000000 0.000000 0.027600 -0.022300 -0.029300 0.000000 0.000000 0.000000 -64.882004 21.849600 3.792600 15.969800 -10.698400 -26.588800 -7.591500 5.923700 -11.265900 0.000000 0.000000 0.000000 0.000000 0.000000 0.000000 0.000000 0.000000 0.000000 -0.013300 0.006100 -0.005200 0.000000 0.000000 0.000000 -0.032900 0.030200 -0.004900 0.000000 0.000000 0.000000 -0.030100 0.004100 -0.032400 0.000000 0.000000 0.000000 -0.003800 -0.018400 0.013800 0.000000 0.000000 0.000000 -0.855100 0.832400 5.264700 4.073000 15.256400 -2.445100 -1.907000 -9.234700 -8.371400 0.000000 0.000000 0.000000 4.392600 -6.372000 -17.968901 7.509600 28.637600 -1.507100 2.905500 -14.410400 11.957400 
